<svg width="22" height="22" viewBox="0 0 22 22" fill="none" xmlns="http://www.w3.org/2000/svg">
<g clip-path="url(#clip0_202_196)">
<path fill-rule="evenodd" clip-rule="evenodd" d="M14.6824 21.6334V13.4552H17.3235L17.7173 10.2678H14.6824V8.23317C14.6824 7.31137 14.9281 6.68254 16.2019 6.68254L17.8251 6.68033V3.8317C17.5439 3.7921 16.5806 3.7041 15.459 3.7041C13.1186 3.7041 11.5162 5.19094 11.5162 7.91857V10.2678H8.8667V13.4552H11.5162V21.6334H14.6824Z" stroke="white"/>
<path fill-rule="evenodd" clip-rule="evenodd" d="M20.1667 21.6334H1.83337C1.0234 21.6334 0.366699 20.9767 0.366699 20.1667V1.83337C0.366699 1.0234 1.0234 0.366699 1.83337 0.366699H20.1667C20.9767 0.366699 21.6334 1.0234 21.6334 1.83337V20.1667C21.6334 20.9767 20.9767 21.6334 20.1667 21.6334Z" stroke="white" stroke-linejoin="round"/>
</g>
<defs>
<clipPath id="clip0_202_196">
<rect width="22" height="22" fill="white"/>
</clipPath>
</defs>
</svg>