<svg width="22" height="22" viewBox="0 0 22 22" fill="none" xmlns="http://www.w3.org/2000/svg">
<path d="M15.5834 1.83334H6.41671C3.8854 1.83334 1.83337 3.88537 1.83337 6.41668V15.5833C1.83337 18.1146 3.8854 20.1667 6.41671 20.1667H15.5834C18.1147 20.1667 20.1667 18.1146 20.1667 15.5833V6.41668C20.1667 3.88537 18.1147 1.83334 15.5834 1.83334Z" stroke="white" stroke-linecap="round" stroke-linejoin="round"/>
<path d="M14.6667 10.4225C14.7799 11.1854 14.6495 11.9645 14.2943 12.6491C13.9391 13.3337 13.3771 13.8888 12.6882 14.2355C11.9993 14.5823 11.2186 14.703 10.4572 14.5804C9.69575 14.4579 8.99234 14.0984 8.44699 13.5531C7.90165 13.0077 7.54214 12.3043 7.41962 11.5429C7.29709 10.7814 7.41778 10.0007 7.76452 9.31184C8.11126 8.62295 8.66639 8.06093 9.35096 7.70572C10.0355 7.35052 10.8147 7.22021 11.5776 7.33334C12.3557 7.44873 13.0762 7.81134 13.6324 8.36762C14.1887 8.92389 14.5513 9.64432 14.6667 10.4225Z" stroke="white" stroke-linecap="round" stroke-linejoin="round"/>
<path d="M16.0416 5.95834H16.0516" stroke="white" stroke-linecap="round" stroke-linejoin="round"/>
</svg>
