<svg width="22" height="18" viewBox="0 0 22 18" fill="none" xmlns="http://www.w3.org/2000/svg">
<path fill-rule="evenodd" clip-rule="evenodd" d="M19 0H3C1.34806 0 0.00999965 1.34735 0.00999965 3L0 14.9992C0 16.6523 1.34772 18 3 18H19C20.6523 18 22 16.6523 22 15V3C22 1.34772 20.6523 0 19 0ZM4.48406 6.00015C4.01101 5.71512 3.85859 5.10058 4.14361 4.62753C4.42864 4.15447 5.04318 4.00205 5.51623 4.28708L10.9707 7.57353L16.6632 4.14361C17.1363 3.85859 17.7517 4.01239 18.0367 4.48544C18.3211 4.95742 18.1709 5.57188 17.6998 5.85777L11.01 9.91801L11.0037 9.9284L4.48406 6.00015Z" fill="white"/>
</svg>
