<svg width="18" height="20" viewBox="0 0 18 20" fill="none" xmlns="http://www.w3.org/2000/svg">
<path fill-rule="evenodd" clip-rule="evenodd" d="M15 2V1C15 0.447715 14.5523 0 14 0C13.4477 0 13 0.447715 13 1V2H5V1C5 0.447715 4.55228 0 4 0C3.44772 0 3 0.447715 3 1V2H2C0.89 2 0.01 2.9 0.01 4L0 18C0 19.1 0.89 20 2 20H16C17.1 20 18 19.1 18 18V4C18 2.9 17.1 2 16 2H15ZM2 18V7H16V18H2ZM4 10C4 9.44771 4.44772 9 5 9H8C8.55229 9 9 9.44771 9 10V13C9 13.5523 8.55229 14 8 14H5C4.44772 14 4 13.5523 4 13V10Z" fill="#C2D1D9"/>
</svg>
