<svg width="22" height="22" viewBox="0 0 22 22" fill="none" xmlns="http://www.w3.org/2000/svg">
<path d="M21.0833 2.75C20.2055 3.36919 19.2336 3.84277 18.205 4.1525C17.6529 3.51772 16.9192 3.0678 16.1031 2.8636C15.287 2.6594 14.4278 2.71076 13.6419 3.01075C12.8559 3.31074 12.181 3.84487 11.7085 4.54091C11.236 5.23695 10.9887 6.06131 11 6.9025V7.81917C9.38904 7.86094 7.79279 7.50366 6.35338 6.77916C4.91397 6.05466 3.67608 4.98542 2.74996 3.66667C2.74996 3.66667 -0.916707 11.9167 7.33329 15.5833C5.44544 16.8648 3.19652 17.5074 0.916626 17.4167C9.16663 22 19.25 17.4167 19.25 6.875C19.2491 6.61967 19.2246 6.36496 19.1766 6.11417C20.1122 5.19154 20.7724 4.02665 21.0833 2.75V2.75Z" stroke="white" stroke-linecap="round" stroke-linejoin="round"/>
</svg>
