<svg width="22" height="17" viewBox="0 0 22 17" fill="none" xmlns="http://www.w3.org/2000/svg">
<g clip-path="url(#clip0_202_205)">
<path d="M17.6251 0H4.37489C1.96252 0 0 1.9687 0 4.38852V11.7748C0 14.1946 1.96252 16.1633 4.37489 16.1633H17.6251C20.0375 16.1633 22 14.1946 22 11.7748V4.38852C22 1.9687 20.0375 0 17.6251 0ZM21.102 11.7748C21.102 13.6994 19.5422 15.2653 17.6251 15.2653H4.37489C2.45775 15.2653 0.897959 13.6994 0.897959 11.7748V4.38852C0.897959 2.46392 2.45775 0.897959 4.37489 0.897959H17.6251C19.5422 0.897959 21.102 2.46392 21.102 4.38852V11.7748Z" fill="white"/>
<path d="M14.978 7.91914L8.75743 4.27554C8.61932 4.19468 8.44701 4.19333 8.30732 4.27338C8.16769 4.35339 8.08154 4.502 8.08154 4.66292V11.9492C8.08154 12.1101 8.16769 12.2588 8.3071 12.3388C8.37638 12.3785 8.45356 12.3982 8.53052 12.3982C8.60899 12.3982 8.68725 12.3776 8.75743 12.3366L14.978 8.6939C15.1155 8.61345 15.2001 8.4659 15.2001 8.30651C15.2001 8.14712 15.1157 7.9996 14.978 7.91914ZM8.9795 11.1659V5.44625L13.8626 8.30651L8.9795 11.1659Z" fill="white"/>
</g>
<defs>
<clipPath id="clip0_202_205">
<rect width="22" height="16.1633" fill="white"/>
</clipPath>
</defs>
</svg>
