<svg width="752" height="538" viewBox="0 0 752 538" fill="none" xmlns="http://www.w3.org/2000/svg">
<mask id="mask0_3312:2786" style="mask-type:alpha" maskUnits="userSpaceOnUse" x="0" y="0" width="765" height="538">
<rect x="0.640381" width="764.36" height="538" fill="white"/>
</mask>
<g mask="url(#mask0_3312:2786)">
<path fill-rule="evenodd" clip-rule="evenodd" d="M301.061 193C344.492 193 379.82 158.013 379.82 115.014C379.82 71.9873 344.492 37 301.061 37C257.63 37 222.303 71.9873 222.303 115C222.303 158.013 257.63 193 301.061 193ZM301.061 65.0122C328.893 65.0122 351.535 87.45 351.535 115C351.535 142.55 328.893 164.988 301.061 164.988C273.229 164.988 250.587 142.564 250.587 115.014C250.587 87.464 273.229 65.0122 301.061 65.0122ZM12.9353 568.652C10.2577 570.983 6.93172 572.128 3.63394 572.128C-0.269828 572.128 -4.15951 570.536 -6.94993 567.396C-12.0939 561.604 -11.5302 552.783 -5.68156 547.689L419.452 161.444C425.033 156.587 433.461 156.852 438.731 162.058L505.575 228.256L643.602 78.54C646.125 75.8044 649.648 74.1715 653.383 74.004C657.089 73.9202 660.767 75.1624 663.53 77.6607L832.646 231.187C838.396 236.393 838.776 245.228 833.52 250.908C828.263 256.589 819.342 256.98 813.606 251.774L654.905 107.696L525.516 248.019L593.262 315.11C598.772 320.568 598.772 329.388 593.262 334.846C587.751 340.303 578.844 340.303 573.334 334.846L428.148 191.075L12.9353 568.652Z" fill="#C2D1D9"/>
</g>
</svg>
