<svg width="36" height="20" viewBox="0 0 36 20" fill="none" xmlns="http://www.w3.org/2000/svg">
<path d="M7.10469 3.56542L16.9602 13.6224L16.0053 16.487L10.6439 11.0381L8.48884 8.84801L7.51643 11.7652L5.40517 18.1077L2.5668 18.0814L7.10469 3.56542ZM6.24617 0L0 19.9387L6.75427 20L9.30356 12.3522L16.82 20L19.1152 13.1231L6.24617 0Z" fill="white"/>
<path d="M29.9781 1.89221L32.8165 1.91848L28.2698 16.4345L18.4143 6.37756L19.3692 3.51289L24.7306 8.96188L26.8857 11.152L27.8581 8.23479L29.9781 1.89221ZM28.6202 0L26.0709 7.64782L18.5545 0L16.2593 6.87692L29.1283 20L35.3745 0.0612544L28.6202 0Z" fill="white"/>
</svg>
