<svg width="83" height="41" viewBox="0 0 83 41" fill="none" xmlns="http://www.w3.org/2000/svg">
<path d="M5.1 5.52C5.228 5.68 5.388 5.892 5.58 6.156C5.78 6.412 5.984 6.7 6.192 7.02C6.4 7.332 6.604 7.66 6.804 8.004C7.012 8.348 7.188 8.68 7.332 9H6.06C5.9 8.696 5.724 8.388 5.532 8.076C5.348 7.764 5.16 7.468 4.968 7.188C4.776 6.9 4.584 6.632 4.392 6.384C4.208 6.136 4.04 5.92 3.888 5.736C3.784 5.744 3.676 5.748 3.564 5.748C3.46 5.748 3.352 5.748 3.24 5.748H2.196V9H1.032V0.804C1.36 0.724 1.724 0.672 2.124 0.648C2.532 0.615999 2.904 0.599999 3.24 0.599999C4.408 0.599999 5.296 0.819999 5.904 1.26C6.52 1.7 6.828 2.356 6.828 3.228C6.828 3.78 6.68 4.252 6.384 4.644C6.096 5.036 5.668 5.328 5.1 5.52ZM3.336 1.62C2.84 1.62 2.46 1.632 2.196 1.656V4.788H3.024C3.424 4.788 3.784 4.768 4.104 4.728C4.424 4.688 4.692 4.612 4.908 4.5C5.132 4.388 5.304 4.232 5.424 4.032C5.544 3.824 5.604 3.552 5.604 3.216C5.604 2.904 5.544 2.644 5.424 2.436C5.304 2.228 5.14 2.064 4.932 1.944C4.732 1.824 4.492 1.74 4.212 1.692C3.94 1.644 3.648 1.62 3.336 1.62ZM8.57888 9V0.684H13.6549V1.68H9.74288V4.152H13.2229V5.124H9.74288V8.004H13.9549V9H8.57888ZM22.2623 4.836C22.2623 5.556 22.1503 6.184 21.9263 6.72C21.7023 7.248 21.3863 7.688 20.9783 8.04C20.5703 8.384 20.0823 8.644 19.5143 8.82C18.9463 8.988 18.3223 9.072 17.6423 9.072C17.3063 9.072 16.9343 9.056 16.5263 9.024C16.1263 9 15.7623 8.948 15.4343 8.868V0.804C15.7623 0.724 16.1263 0.672 16.5263 0.648C16.9343 0.615999 17.3063 0.599999 17.6423 0.599999C18.3223 0.599999 18.9463 0.687999 19.5143 0.864C20.0823 1.032 20.5703 1.292 20.9783 1.644C21.3863 1.988 21.7023 2.428 21.9263 2.964C22.1503 3.492 22.2623 4.116 22.2623 4.836ZM17.7383 8.052C18.8423 8.052 19.6663 7.772 20.2103 7.212C20.7543 6.644 21.0263 5.852 21.0263 4.836C21.0263 3.82 20.7543 3.032 20.2103 2.472C19.6663 1.904 18.8423 1.62 17.7383 1.62C17.4103 1.62 17.1543 1.624 16.9703 1.632C16.7943 1.64 16.6703 1.648 16.5983 1.656V8.016C16.6703 8.024 16.7943 8.032 16.9703 8.04C17.1543 8.048 17.4103 8.052 17.7383 8.052ZM23.989 9V0.684H29.065V1.68H25.153V4.152H28.633V5.124H25.153V8.004H29.365V9H23.989ZM18.414 18.517V22.64H11.935V40H7.099V22.64H0.62V18.517H18.414ZM21.522 18.517H26.358V40H21.522V18.517ZM37.1896 36.311C37.8716 36.311 38.4296 36.2593 38.8636 36.156C39.3183 36.032 39.6799 35.877 39.9486 35.691C40.2173 35.4843 40.4033 35.2467 40.5066 34.978C40.6099 34.7093 40.6616 34.4097 40.6616 34.079C40.6616 33.3763 40.3309 32.7977 39.6696 32.343C39.0083 31.8677 37.8716 31.3613 36.2596 30.824C35.5569 30.576 34.8543 30.297 34.1516 29.987C33.4489 29.6563 32.8186 29.2533 32.2606 28.778C31.7026 28.282 31.2479 27.693 30.8966 27.011C30.5453 26.3083 30.3696 25.461 30.3696 24.469C30.3696 23.477 30.5556 22.5883 30.9276 21.803C31.2996 20.997 31.8266 20.315 32.5086 19.757C33.1906 19.199 34.0173 18.7753 34.9886 18.486C35.9599 18.176 37.0553 18.021 38.2746 18.021C39.7213 18.021 40.9716 18.176 42.0256 18.486C43.0796 18.796 43.9476 19.137 44.6296 19.509L43.2346 23.322C42.6353 23.012 41.9636 22.7433 41.2196 22.516C40.4963 22.268 39.6179 22.144 38.5846 22.144C37.4273 22.144 36.5903 22.3093 36.0736 22.64C35.5776 22.95 35.3296 23.4357 35.3296 24.097C35.3296 24.4897 35.4226 24.8203 35.6086 25.089C35.7946 25.3577 36.0529 25.6057 36.3836 25.833C36.7349 26.0397 37.1276 26.236 37.5616 26.422C38.0163 26.5873 38.5123 26.763 39.0496 26.949C40.1656 27.3623 41.1369 27.7757 41.9636 28.189C42.7903 28.5817 43.4723 29.0467 44.0096 29.584C44.5676 30.1213 44.9809 30.7517 45.2496 31.475C45.5183 32.1983 45.6526 33.0767 45.6526 34.11C45.6526 36.1147 44.9499 37.675 43.5446 38.791C42.1393 39.8863 40.0209 40.434 37.1896 40.434C36.2389 40.434 35.3813 40.372 34.6166 40.248C33.8519 40.1447 33.1699 40.0103 32.5706 39.845C31.9919 39.6797 31.4856 39.504 31.0516 39.318C30.6383 39.132 30.2869 38.9563 29.9976 38.791L31.3616 34.947C32.0023 35.2983 32.7876 35.6187 33.7176 35.908C34.6683 36.1767 35.8256 36.311 37.1896 36.311ZM55.2326 36.311C55.9146 36.311 56.4726 36.2593 56.9066 36.156C57.3612 36.032 57.7229 35.877 57.9916 35.691C58.2602 35.4843 58.4462 35.2467 58.5496 34.978C58.6529 34.7093 58.7046 34.4097 58.7046 34.079C58.7046 33.3763 58.3739 32.7977 57.7126 32.343C57.0512 31.8677 55.9146 31.3613 54.3026 30.824C53.5999 30.576 52.8972 30.297 52.1946 29.987C51.4919 29.6563 50.8616 29.2533 50.3036 28.778C49.7456 28.282 49.2909 27.693 48.9396 27.011C48.5882 26.3083 48.4126 25.461 48.4126 24.469C48.4126 23.477 48.5986 22.5883 48.9706 21.803C49.3426 20.997 49.8696 20.315 50.5516 19.757C51.2336 19.199 52.0602 18.7753 53.0316 18.486C54.0029 18.176 55.0982 18.021 56.3176 18.021C57.7642 18.021 59.0146 18.176 60.0686 18.486C61.1226 18.796 61.9906 19.137 62.6726 19.509L61.2776 23.322C60.6782 23.012 60.0066 22.7433 59.2626 22.516C58.5392 22.268 57.6609 22.144 56.6276 22.144C55.4702 22.144 54.6332 22.3093 54.1166 22.64C53.6206 22.95 53.3726 23.4357 53.3726 24.097C53.3726 24.4897 53.4656 24.8203 53.6516 25.089C53.8376 25.3577 54.0959 25.6057 54.4266 25.833C54.7779 26.0397 55.1706 26.236 55.6046 26.422C56.0592 26.5873 56.5552 26.763 57.0926 26.949C58.2086 27.3623 59.1799 27.7757 60.0066 28.189C60.8332 28.5817 61.5152 29.0467 62.0526 29.584C62.6106 30.1213 63.0239 30.7517 63.2926 31.475C63.5612 32.1983 63.6956 33.0767 63.6956 34.11C63.6956 36.1147 62.9929 37.675 61.5876 38.791C60.1822 39.8863 58.0639 40.434 55.2326 40.434C54.2819 40.434 53.4242 40.372 52.6596 40.248C51.8949 40.1447 51.2129 40.0103 50.6136 39.845C50.0349 39.6797 49.5286 39.504 49.0946 39.318C48.6812 39.132 48.3299 38.9563 48.0406 38.791L49.4046 34.947C50.0452 35.2983 50.8306 35.6187 51.7606 35.908C52.7112 36.1767 53.8686 36.311 55.2326 36.311ZM67.4165 40V18.517H81.9245V22.578H72.2525V26.794H80.8395V30.762H72.2525V35.939H82.6375V40H67.4165Z" fill="white"/>
</svg>
