<svg width="184" height="74" viewBox="0 0 184 74" fill="none" xmlns="http://www.w3.org/2000/svg">
<path d="M33.1477 30.5568C33.1619 28.071 34.6392 26.5938 36.8409 26.5938C39.071 26.5938 40.3636 28.0284 40.3494 30.4574V43H47.2955V29.0938C47.3097 24.1506 44.2983 20.8977 39.7102 20.8977C36.4432 20.8977 34.142 22.5028 33.1619 25.1875H32.9205V13.9091H26.2017V43H33.1477V30.5568ZM51.6314 43H58.5774V21.1818H51.6314V43ZM55.1115 18.6392C57.0859 18.6392 58.6768 17.1477 58.6768 15.3153C58.6768 13.483 57.0859 12.0057 55.1115 12.0057C53.1513 12.0057 51.5462 13.483 51.5462 15.3153C51.5462 17.1477 53.1513 18.6392 55.1115 18.6392ZM82.0469 27.8438C81.6776 23.5256 78.1406 20.8977 72.2315 20.8977C66.3224 20.8977 62.5582 23.4688 62.5866 27.8438C62.5582 31.196 64.7031 33.3551 69.0639 34.1648L72.8707 34.8892C74.6747 35.2443 75.4986 35.8125 75.527 36.7784C75.4986 37.8722 74.277 38.5966 72.5014 38.5966C70.527 38.5966 69.1918 37.7443 68.8935 36.1534L62.0327 36.3239C62.5298 40.642 66.2372 43.4119 72.473 43.4119C78.3111 43.4119 82.5582 40.5 82.5866 36.0114C82.5582 32.8295 80.456 30.9403 76.1094 30.1023L71.9048 29.3068C70.0582 28.9375 69.4616 28.2841 69.4759 27.446C69.4616 26.3381 70.7543 25.6562 72.3594 25.6562C74.1918 25.6562 75.4702 26.6364 75.669 28.0142L82.0469 27.8438ZM98.3217 21.1818H94.3871V15.9545H87.4411V21.1818H84.5575V26.2955H87.4411V36.9062C87.3984 41.3239 90.2678 43.5398 95.1683 43.3125C96.8445 43.2273 98.0518 42.8864 98.7195 42.6875L97.6683 37.6733C97.37 37.7443 96.674 37.8864 96.1484 37.8864C95.0263 37.8864 94.3871 37.4318 94.3871 36.1392V26.2955H98.3217V21.1818ZM111.816 43.4119C118.677 43.4119 122.839 38.8807 122.839 32.1619C122.839 25.429 118.677 20.8977 111.816 20.8977C104.955 20.8977 100.793 25.429 100.793 32.1619C100.793 38.8807 104.955 43.4119 111.816 43.4119ZM111.859 38.1705C109.288 38.1705 107.867 35.7273 107.867 32.1193C107.867 28.4972 109.288 26.0398 111.859 26.0398C114.344 26.0398 115.765 28.4972 115.765 32.1193C115.765 35.7273 114.344 38.1705 111.859 38.1705ZM109.415 18.4119H114.146L118.435 12.0057H112.285L109.415 18.4119ZM126.397 43H133.343V31.1534C133.343 28.554 135.19 26.8068 137.675 26.8068C138.499 26.8068 139.735 26.9489 140.403 27.1761V21.1392C139.82 20.983 139.096 20.8835 138.457 20.8835C136.07 20.8835 134.167 22.2756 133.371 25.1591H133.144V21.1818H126.397V43ZM143.233 43H150.179V21.1818H143.233V43ZM146.713 18.6392C148.688 18.6392 150.278 17.1477 150.278 15.3153C150.278 13.483 148.688 12.0057 146.713 12.0057C144.753 12.0057 143.148 13.483 143.148 15.3153C143.148 17.1477 144.753 18.6392 146.713 18.6392ZM160.751 43.3693C163.79 43.3693 165.893 42.1903 167.086 39.9602H167.256V43H173.79V28.1705C173.79 23.554 169.685 20.8977 164.131 20.8977C158.265 20.8977 154.941 23.8523 154.387 27.8295L160.793 28.0568C161.092 26.6648 162.242 25.8125 164.075 25.8125C165.779 25.8125 166.859 26.6364 166.859 28.0994V28.1705C166.859 29.5057 165.41 29.7898 161.688 30.1165C157.271 30.4858 153.577 32.1193 153.577 36.9489C153.577 41.267 156.575 43.3693 160.751 43.3693ZM162.896 38.8239C161.29 38.8239 160.154 38.0568 160.154 36.608C160.154 35.2017 161.262 34.3494 163.237 34.0511C164.529 33.8665 166.12 33.5824 166.901 33.1705V35.2443C166.901 37.375 165.112 38.8239 162.896 38.8239ZM34.386 62.69C34.386 63.002 34.368 63.332 34.332 63.68H26.448C26.508 64.652 26.838 65.414 27.438 65.966C28.05 66.506 28.788 66.776 29.652 66.776C30.36 66.776 30.948 66.614 31.416 66.29C31.896 65.954 32.232 65.51 32.424 64.958H34.188C33.924 65.906 33.396 66.68 32.604 67.28C31.812 67.868 30.828 68.162 29.652 68.162C28.716 68.162 27.876 67.952 27.132 67.532C26.4 67.112 25.824 66.518 25.404 65.75C24.984 64.97 24.774 64.07 24.774 63.05C24.774 62.03 24.978 61.136 25.386 60.368C25.794 59.6 26.364 59.012 27.096 58.604C27.84 58.184 28.692 57.974 29.652 57.974C30.588 57.974 31.416 58.178 32.136 58.586C32.856 58.994 33.408 59.558 33.792 60.278C34.188 60.986 34.386 61.79 34.386 62.69ZM32.694 62.348C32.694 61.724 32.556 61.19 32.28 60.746C32.004 60.29 31.626 59.948 31.146 59.72C30.678 59.48 30.156 59.36 29.58 59.36C28.752 59.36 28.044 59.624 27.456 60.152C26.88 60.68 26.55 61.412 26.466 62.348H32.694ZM40.0401 68.162C39.2841 68.162 38.6061 68.036 38.0061 67.784C37.4061 67.52 36.9321 67.16 36.5841 66.704C36.2361 66.236 36.0441 65.702 36.0081 65.102H37.7001C37.7481 65.594 37.9761 65.996 38.3841 66.308C38.8041 66.62 39.3501 66.776 40.0221 66.776C40.6461 66.776 41.1381 66.638 41.4981 66.362C41.8581 66.086 42.0381 65.738 42.0381 65.318C42.0381 64.886 41.8461 64.568 41.4621 64.364C41.0781 64.148 40.4841 63.938 39.6801 63.734C38.9481 63.542 38.3481 63.35 37.8801 63.158C37.4241 62.954 37.0281 62.66 36.6921 62.276C36.3681 61.88 36.2061 61.364 36.2061 60.728C36.2061 60.224 36.3561 59.762 36.6561 59.342C36.9561 58.922 37.3821 58.592 37.9341 58.352C38.4861 58.1 39.1161 57.974 39.8241 57.974C40.9161 57.974 41.7981 58.25 42.4701 58.802C43.1421 59.354 43.5021 60.11 43.5501 61.07H41.9121C41.8761 60.554 41.6661 60.14 41.2821 59.828C40.9101 59.516 40.4061 59.36 39.7701 59.36C39.1821 59.36 38.7141 59.486 38.3661 59.738C38.0181 59.99 37.8441 60.32 37.8441 60.728C37.8441 61.052 37.9461 61.322 38.1501 61.538C38.3661 61.742 38.6301 61.91 38.9421 62.042C39.2661 62.162 39.7101 62.3 40.2741 62.456C40.9821 62.648 41.5581 62.84 42.0021 63.032C42.4461 63.212 42.8241 63.488 43.1361 63.86C43.4601 64.232 43.6281 64.718 43.6401 65.318C43.6401 65.858 43.4901 66.344 43.1901 66.776C42.8901 67.208 42.4641 67.55 41.9121 67.802C41.3721 68.042 40.7481 68.162 40.0401 68.162ZM47.9504 59.486V65.3C47.9504 65.78 48.0524 66.122 48.2564 66.326C48.4604 66.518 48.8144 66.614 49.3184 66.614H50.5244V68H49.0484C48.1364 68 47.4524 67.79 46.9964 67.37C46.5404 66.95 46.3124 66.26 46.3124 65.3V59.486H45.0344V58.136H46.3124V55.652H47.9504V58.136H50.5244V59.486H47.9504ZM51.897 63.032C51.897 62.024 52.101 61.142 52.509 60.386C52.917 59.618 53.475 59.024 54.183 58.604C54.903 58.184 55.701 57.974 56.577 57.974C57.441 57.974 58.191 58.16 58.827 58.532C59.463 58.904 59.937 59.372 60.249 59.936V58.136H61.905V68H60.249V66.164C59.925 66.74 59.439 67.22 58.791 67.604C58.155 67.976 57.411 68.162 56.559 68.162C55.683 68.162 54.891 67.946 54.183 67.514C53.475 67.082 52.917 66.476 52.509 65.696C52.101 64.916 51.897 64.028 51.897 63.032ZM60.249 63.05C60.249 62.306 60.099 61.658 59.799 61.106C59.499 60.554 59.091 60.134 58.575 59.846C58.071 59.546 57.513 59.396 56.901 59.396C56.289 59.396 55.731 59.54 55.227 59.828C54.723 60.116 54.321 60.536 54.021 61.088C53.721 61.64 53.571 62.288 53.571 63.032C53.571 63.788 53.721 64.448 54.021 65.012C54.321 65.564 54.723 65.99 55.227 66.29C55.731 66.578 56.289 66.722 56.901 66.722C57.513 66.722 58.071 66.578 58.575 66.29C59.091 65.99 59.499 65.564 59.799 65.012C60.099 64.448 60.249 63.794 60.249 63.05ZM58.971 55.346L55.137 57.398V56.174L58.971 53.924V55.346ZM74.2779 57.956C75.4779 57.956 76.4499 58.322 77.1939 59.054C77.9379 59.774 78.3099 60.818 78.3099 62.186V68H76.6899V62.42C76.6899 61.436 76.4439 60.686 75.9519 60.17C75.4599 59.642 74.7879 59.378 73.9359 59.378C73.0719 59.378 72.3819 59.648 71.8659 60.188C71.3619 60.728 71.1099 61.514 71.1099 62.546V68H69.4719V58.136H71.1099V59.54C71.4339 59.036 71.8719 58.646 72.4239 58.37C72.9879 58.094 73.6059 57.956 74.2779 57.956ZM85.2876 68.162C84.3636 68.162 83.5236 67.952 82.7676 67.532C82.0236 67.112 81.4356 66.518 81.0036 65.75C80.5836 64.97 80.3736 64.07 80.3736 63.05C80.3736 62.042 80.5896 61.154 81.0216 60.386C81.4656 59.606 82.0656 59.012 82.8216 58.604C83.5776 58.184 84.4236 57.974 85.3596 57.974C86.2956 57.974 87.1416 58.184 87.8976 58.604C88.6536 59.012 89.2476 59.6 89.6796 60.368C90.1236 61.136 90.3456 62.03 90.3456 63.05C90.3456 64.07 90.1176 64.97 89.6616 65.75C89.2176 66.518 88.6116 67.112 87.8436 67.532C87.0756 67.952 86.2236 68.162 85.2876 68.162ZM85.2876 66.722C85.8756 66.722 86.4276 66.584 86.9436 66.308C87.4596 66.032 87.8736 65.618 88.1856 65.066C88.5096 64.514 88.6716 63.842 88.6716 63.05C88.6716 62.258 88.5156 61.586 88.2036 61.034C87.8916 60.482 87.4836 60.074 86.9796 59.81C86.4756 59.534 85.9296 59.396 85.3416 59.396C84.7416 59.396 84.1896 59.534 83.6856 59.81C83.1936 60.074 82.7976 60.482 82.4976 61.034C82.1976 61.586 82.0476 62.258 82.0476 63.05C82.0476 63.854 82.1916 64.532 82.4796 65.084C82.7796 65.636 83.1756 66.05 83.6676 66.326C84.1596 66.59 84.6996 66.722 85.2876 66.722ZM95.9913 68.162C95.2353 68.162 94.5573 68.036 93.9573 67.784C93.3573 67.52 92.8833 67.16 92.5353 66.704C92.1873 66.236 91.9953 65.702 91.9593 65.102H93.6513C93.6993 65.594 93.9273 65.996 94.3353 66.308C94.7553 66.62 95.3013 66.776 95.9733 66.776C96.5973 66.776 97.0893 66.638 97.4493 66.362C97.8093 66.086 97.9893 65.738 97.9893 65.318C97.9893 64.886 97.7973 64.568 97.4133 64.364C97.0293 64.148 96.4353 63.938 95.6313 63.734C94.8993 63.542 94.2993 63.35 93.8313 63.158C93.3753 62.954 92.9793 62.66 92.6433 62.276C92.3193 61.88 92.1573 61.364 92.1573 60.728C92.1573 60.224 92.3073 59.762 92.6073 59.342C92.9073 58.922 93.3333 58.592 93.8853 58.352C94.4373 58.1 95.0673 57.974 95.7753 57.974C96.8673 57.974 97.7493 58.25 98.4213 58.802C99.0933 59.354 99.4533 60.11 99.5013 61.07H97.8633C97.8273 60.554 97.6173 60.14 97.2333 59.828C96.8613 59.516 96.3573 59.36 95.7213 59.36C95.1333 59.36 94.6653 59.486 94.3173 59.738C93.9693 59.99 93.7953 60.32 93.7953 60.728C93.7953 61.052 93.8973 61.322 94.1013 61.538C94.3173 61.742 94.5813 61.91 94.8933 62.042C95.2173 62.162 95.6613 62.3 96.2253 62.456C96.9333 62.648 97.5093 62.84 97.9533 63.032C98.3973 63.212 98.7753 63.488 99.0873 63.86C99.4113 64.232 99.5793 64.718 99.5913 65.318C99.5913 65.858 99.4413 66.344 99.1413 66.776C98.8413 67.208 98.4153 67.55 97.8633 67.802C97.3233 68.042 96.6993 68.162 95.9913 68.162ZM106.09 63.032C106.09 62.024 106.294 61.142 106.702 60.386C107.11 59.618 107.668 59.024 108.376 58.604C109.096 58.184 109.9 57.974 110.788 57.974C111.556 57.974 112.27 58.154 112.93 58.514C113.59 58.862 114.094 59.324 114.442 59.9V54.68H116.098V68H114.442V66.146C114.118 66.734 113.638 67.22 113.002 67.604C112.366 67.976 111.622 68.162 110.77 68.162C109.894 68.162 109.096 67.946 108.376 67.514C107.668 67.082 107.11 66.476 106.702 65.696C106.294 64.916 106.09 64.028 106.09 63.032ZM114.442 63.05C114.442 62.306 114.292 61.658 113.992 61.106C113.692 60.554 113.284 60.134 112.768 59.846C112.264 59.546 111.706 59.396 111.094 59.396C110.482 59.396 109.924 59.54 109.42 59.828C108.916 60.116 108.514 60.536 108.214 61.088C107.914 61.64 107.764 62.288 107.764 63.032C107.764 63.788 107.914 64.448 108.214 65.012C108.514 65.564 108.916 65.99 109.42 66.29C109.924 66.578 110.482 66.722 111.094 66.722C111.706 66.722 112.264 66.578 112.768 66.29C113.284 65.99 113.692 65.564 113.992 65.012C114.292 64.448 114.442 63.794 114.442 63.05ZM127.866 62.69C127.866 63.002 127.848 63.332 127.812 63.68H119.928C119.988 64.652 120.318 65.414 120.918 65.966C121.53 66.506 122.268 66.776 123.132 66.776C123.84 66.776 124.428 66.614 124.896 66.29C125.376 65.954 125.712 65.51 125.904 64.958H127.668C127.404 65.906 126.876 66.68 126.084 67.28C125.292 67.868 124.308 68.162 123.132 68.162C122.196 68.162 121.356 67.952 120.612 67.532C119.88 67.112 119.304 66.518 118.884 65.75C118.464 64.97 118.254 64.07 118.254 63.05C118.254 62.03 118.458 61.136 118.866 60.368C119.274 59.6 119.844 59.012 120.576 58.604C121.32 58.184 122.172 57.974 123.132 57.974C124.068 57.974 124.896 58.178 125.616 58.586C126.336 58.994 126.888 59.558 127.272 60.278C127.668 60.986 127.866 61.79 127.866 62.69ZM126.174 62.348C126.174 61.724 126.036 61.19 125.76 60.746C125.484 60.29 125.106 59.948 124.626 59.72C124.158 59.48 123.636 59.36 123.06 59.36C122.232 59.36 121.524 59.624 120.936 60.152C120.36 60.68 120.03 61.412 119.946 62.348H126.174ZM132.027 59.486V65.3C132.027 65.78 132.129 66.122 132.333 66.326C132.537 66.518 132.891 66.614 133.395 66.614H134.601V68H133.125C132.213 68 131.529 67.79 131.073 67.37C130.617 66.95 130.389 66.26 130.389 65.3V59.486H129.111V58.136H130.389V55.652H132.027V58.136H134.601V59.486H132.027ZM135.973 63.032C135.973 62.024 136.177 61.142 136.585 60.386C136.993 59.618 137.551 59.024 138.259 58.604C138.979 58.184 139.777 57.974 140.653 57.974C141.517 57.974 142.267 58.16 142.903 58.532C143.539 58.904 144.013 59.372 144.325 59.936V58.136H145.981V68H144.325V66.164C144.001 66.74 143.515 67.22 142.867 67.604C142.231 67.976 141.487 68.162 140.635 68.162C139.759 68.162 138.967 67.946 138.259 67.514C137.551 67.082 136.993 66.476 136.585 65.696C136.177 64.916 135.973 64.028 135.973 63.032ZM144.325 63.05C144.325 62.306 144.175 61.658 143.875 61.106C143.575 60.554 143.167 60.134 142.651 59.846C142.147 59.546 141.589 59.396 140.977 59.396C140.365 59.396 139.807 59.54 139.303 59.828C138.799 60.116 138.397 60.536 138.097 61.088C137.797 61.64 137.647 62.288 137.647 63.032C137.647 63.788 137.797 64.448 138.097 65.012C138.397 65.564 138.799 65.99 139.303 66.29C139.807 66.578 140.365 66.722 140.977 66.722C141.589 66.722 142.147 66.578 142.651 66.29C143.167 65.99 143.575 65.564 143.875 65.012C144.175 64.448 144.325 63.794 144.325 63.05ZM150.387 54.68V68H148.749V54.68H150.387ZM158.075 57.956C158.819 57.956 159.491 58.118 160.091 58.442C160.691 58.754 161.159 59.228 161.495 59.864C161.843 60.5 162.017 61.274 162.017 62.186V68H160.397V62.42C160.397 61.436 160.151 60.686 159.659 60.17C159.167 59.642 158.495 59.378 157.643 59.378C156.779 59.378 156.089 59.648 155.573 60.188C155.069 60.728 154.817 61.514 154.817 62.546V68H153.179V54.68H154.817V59.54C155.141 59.036 155.585 58.646 156.149 58.37C156.725 58.094 157.367 57.956 158.075 57.956ZM173.693 62.69C173.693 63.002 173.675 63.332 173.639 63.68H165.755C165.815 64.652 166.145 65.414 166.745 65.966C167.357 66.506 168.095 66.776 168.959 66.776C169.667 66.776 170.255 66.614 170.723 66.29C171.203 65.954 171.539 65.51 171.731 64.958H173.495C173.231 65.906 172.703 66.68 171.911 67.28C171.119 67.868 170.135 68.162 168.959 68.162C168.023 68.162 167.183 67.952 166.439 67.532C165.707 67.112 165.131 66.518 164.711 65.75C164.291 64.97 164.081 64.07 164.081 63.05C164.081 62.03 164.285 61.136 164.693 60.368C165.101 59.6 165.671 59.012 166.403 58.604C167.147 58.184 167.999 57.974 168.959 57.974C169.895 57.974 170.723 58.178 171.443 58.586C172.163 58.994 172.715 59.558 173.099 60.278C173.495 60.986 173.693 61.79 173.693 62.69ZM172.001 62.348C172.001 61.724 171.863 61.19 171.587 60.746C171.311 60.29 170.933 59.948 170.453 59.72C169.985 59.48 169.463 59.36 168.887 59.36C168.059 59.36 167.351 59.624 166.763 60.152C166.187 60.68 165.857 61.412 165.773 62.348H172.001ZM179.347 68.162C178.591 68.162 177.913 68.036 177.313 67.784C176.713 67.52 176.239 67.16 175.891 66.704C175.543 66.236 175.351 65.702 175.315 65.102H177.007C177.055 65.594 177.283 65.996 177.691 66.308C178.111 66.62 178.657 66.776 179.329 66.776C179.953 66.776 180.445 66.638 180.805 66.362C181.165 66.086 181.345 65.738 181.345 65.318C181.345 64.886 181.153 64.568 180.769 64.364C180.385 64.148 179.791 63.938 178.987 63.734C178.255 63.542 177.655 63.35 177.187 63.158C176.731 62.954 176.335 62.66 175.999 62.276C175.675 61.88 175.513 61.364 175.513 60.728C175.513 60.224 175.663 59.762 175.963 59.342C176.263 58.922 176.689 58.592 177.241 58.352C177.793 58.1 178.423 57.974 179.131 57.974C180.223 57.974 181.105 58.25 181.777 58.802C182.449 59.354 182.809 60.11 182.857 61.07H181.219C181.183 60.554 180.973 60.14 180.589 59.828C180.217 59.516 179.713 59.36 179.077 59.36C178.489 59.36 178.021 59.486 177.673 59.738C177.325 59.99 177.151 60.32 177.151 60.728C177.151 61.052 177.253 61.322 177.457 61.538C177.673 61.742 177.937 61.91 178.249 62.042C178.573 62.162 179.017 62.3 179.581 62.456C180.289 62.648 180.865 62.84 181.309 63.032C181.753 63.212 182.131 63.488 182.443 63.86C182.767 64.232 182.935 64.718 182.947 65.318C182.947 65.858 182.797 66.344 182.497 66.776C182.197 67.208 181.771 67.55 181.219 67.802C180.679 68.042 180.055 68.162 179.347 68.162Z" fill="white"/>
<path opacity="0.8" d="M19.904 17.296L16.576 34H15.04L15.68 30.736C14.8693 31.8027 13.856 32.6347 12.64 33.232C11.4453 33.8293 10.112 34.128 8.64 34.128C6.464 34.128 4.71467 33.5093 3.392 32.272C2.09067 31.0133 1.44 29.3173 1.44 27.184C1.44 25.2853 1.84533 23.5787 2.656 22.064C3.46667 20.528 4.58667 19.3333 6.016 18.48C7.46667 17.6053 9.088 17.168 10.88 17.168C12.608 17.168 14.0373 17.5413 15.168 18.288C16.2987 19.0347 17.0667 20.0907 17.472 21.456L18.304 17.296H19.904ZM8.96 32.688C10.4533 32.688 11.7867 32.3253 12.96 31.6C14.1547 30.8747 15.0933 29.872 15.776 28.592C16.4587 27.2907 16.8 25.8293 16.8 24.208C16.8 22.4373 16.2773 21.0613 15.232 20.08C14.208 19.0987 12.7573 18.608 10.88 18.608C9.38667 18.608 8.04267 18.9813 6.848 19.728C5.67467 20.4533 4.74667 21.4667 4.064 22.768C3.38133 24.048 3.04 25.488 3.04 27.088C3.04 28.8587 3.552 30.2347 4.576 31.216C5.62133 32.1973 7.08267 32.688 8.96 32.688Z" fill="white"/>
</svg>
