<svg width="40" height="33" viewBox="0 0 40 33" fill="none" xmlns="http://www.w3.org/2000/svg">
<path fill-rule="evenodd" clip-rule="evenodd" d="M0.5 30.7222C0.5 30.2507 0.687301 29.7985 1.0207 29.4651C1.3541 29.1317 1.80628 28.9444 2.27778 28.9444H37.8333C38.3048 28.9444 38.757 29.1317 39.0904 29.4651C39.4238 29.7985 39.6111 30.2507 39.6111 30.7222C39.6111 31.1937 39.4238 31.6459 39.0904 31.9793C38.757 32.3127 38.3048 32.5 37.8333 32.5H2.27778C1.80628 32.5 1.3541 32.3127 1.0207 31.9793C0.687301 31.6459 0.5 31.1937 0.5 30.7222ZM0.5 16.5C0.5 16.0285 0.687301 15.5763 1.0207 15.2429C1.3541 14.9095 1.80628 14.7222 2.27778 14.7222H37.8333C38.3048 14.7222 38.757 14.9095 39.0904 15.2429C39.4238 15.5763 39.6111 16.0285 39.6111 16.5C39.6111 16.9715 39.4238 17.4237 39.0904 17.7571C38.757 18.0905 38.3048 18.2778 37.8333 18.2778H2.27778C1.80628 18.2778 1.3541 18.0905 1.0207 17.7571C0.687301 17.4237 0.5 16.9715 0.5 16.5ZM0.5 2.27778C0.5 1.80628 0.687301 1.3541 1.0207 1.0207C1.3541 0.687301 1.80628 0.5 2.27778 0.5H37.8333C38.3048 0.5 38.757 0.687301 39.0904 1.0207C39.4238 1.3541 39.6111 1.80628 39.6111 2.27778C39.6111 2.74927 39.4238 3.20146 39.0904 3.53486C38.757 3.86825 38.3048 4.05556 37.8333 4.05556H2.27778C1.80628 4.05556 1.3541 3.86825 1.0207 3.53486C0.687301 3.20146 0.5 2.74927 0.5 2.27778V2.27778Z" fill="white"/>
</svg>
