<svg width="23" height="25" viewBox="0 0 23 25" fill="none" xmlns="http://www.w3.org/2000/svg">
<path d="M18.0714 15.625C16.9108 15.625 15.844 16.0068 15.0019 16.6453L9.74029 13.5176C9.89611 12.8473 9.89611 12.1527 9.74029 11.4823L15.0019 8.35469C15.844 8.99321 16.9108 9.375 18.0714 9.375C20.7934 9.375 23 7.27632 23 4.6875C23 2.09868 20.7934 0 18.0714 0C15.3495 0 13.1429 2.09868 13.1429 4.6875C13.1429 5.03701 13.1834 5.37744 13.2597 5.70513L7.99815 8.83276C7.15603 8.19429 6.08925 7.8125 4.92857 7.8125C2.20661 7.8125 0 9.91118 0 12.5C0 15.0888 2.20661 17.1875 4.92857 17.1875C6.08925 17.1875 7.15603 16.8057 7.99815 16.1672L13.2597 19.2949C13.1819 19.629 13.1428 19.9703 13.1429 20.3125C13.1429 22.9013 15.3495 25 18.0714 25C20.7934 25 23 22.9013 23 20.3125C23 17.7237 20.7934 15.625 18.0714 15.625Z" fill="black"/>
</svg>
